<svg id="Layer_1" data-name="Layer 1" xmlns="http://www.w3.org/2000/svg" xmlns:xlink="http://www.w3.org/1999/xlink" viewBox="0 0 1422.06 1448.1"><defs><style>.cls-1{fill:none;}.cls-2{clip-path:url(#clip-path);}.cls-3{fill:#fff;}</style><clipPath id="clip-path" transform="translate(-233.12 4.47)"><rect class="cls-1" x="-0.47" y="-4.47" width="1889.24" height="1448.14"/></clipPath></defs><g class="cls-2"><g id="Mask_Group_1" data-name="Mask Group 1"><g id="icon-1"><path id="Path_1565" data-name="Path 1565" class="cls-3" d="M418.63,539.69a23.27,23.27,0,0,0,33.35-.12,24.33,24.33,0,0,0,0-33.87l-57.22-58.37L452,388.92a24.38,24.38,0,0,0-.12-34,23.22,23.22,0,0,0-33.23,0l-73.95,75.39a24.36,24.36,0,0,0,0,34h0Z" transform="translate(-233.12 4.47)"/><path id="Path_1566" data-name="Path 1566" class="cls-3" d="M607.55,447.27l-57.22,58.37a24.36,24.36,0,0,0,.11,34,23.22,23.22,0,0,0,33.23,0l74-75.38a24.36,24.36,0,0,0,0-34h0l-74-75.38a23.25,23.25,0,0,0-33.33,0,24.37,24.37,0,0,0,0,34h0Z" transform="translate(-233.12 4.47)"/><path id="Path_1567" data-name="Path 1567" class="cls-3" d="M488.49,545a23.45,23.45,0,0,0,30.56-13.58l58.06-150.77A24.19,24.19,0,0,0,564,349.43a23.41,23.41,0,0,0-30.6,13.43l-.09.22L475.19,513.84A24.2,24.2,0,0,0,488.49,545Z" transform="translate(-233.12 4.47)"/><path id="Path_1568" data-name="Path 1568" class="cls-3" d="M374.73,657.57H533.59a24,24,0,0,0,0-48.06H374.73a24,24,0,0,0-.29,48.06Z" transform="translate(-233.12 4.47)"/><path id="Path_1569" data-name="Path 1569" class="cls-3" d="M845.86,609.51H566.7a24,24,0,0,0,0,48.06H845.86a24,24,0,0,0,.29-48.06Z" transform="translate(-233.12 4.47)"/><path id="Path_1570" data-name="Path 1570" class="cls-3" d="M374.73,746.72h67.66a24,24,0,0,0,0-48.08H374.73a24.08,24.08,0,0,0,0,48.15Z" transform="translate(-233.12 4.47)"/><path id="Path_1571" data-name="Path 1571" class="cls-3" d="M744.1,698.64a24.08,24.08,0,0,0,0,48.15h41.24a24.08,24.08,0,0,0,0-48.15Z" transform="translate(-233.12 4.47)"/><path id="Path_1572" data-name="Path 1572" class="cls-3" d="M713.82,722.67a23.84,23.84,0,0,0-23.58-24.08H487.88a24,24,0,0,0-.29,48.07H690.26a23.81,23.81,0,0,0,23.58-24.07Z" transform="translate(-233.12 4.47)"/><path id="Path_1573" data-name="Path 1573" class="cls-3" d="M820.05,722.67a23.83,23.83,0,0,0,23.58,24.07h77.16a24.08,24.08,0,0,0,0-48.15H843.63A23.81,23.81,0,0,0,820.05,722.67Z" transform="translate(-233.12 4.47)"/><path id="Path_1574" data-name="Path 1574" class="cls-3" d="M710.8,463.17h81.41a24,24,0,0,0,0-48.07H710.8a24,24,0,0,0,0,48.07Z" transform="translate(-233.12 4.47)"/><path id="Path_1575" data-name="Path 1575" class="cls-3" d="M827,463.17h496.64a24,24,0,0,0,0-48.07H827a24,24,0,0,0-.29,48.07Z" transform="translate(-233.12 4.47)"/><path id="Path_1576" data-name="Path 1576" class="cls-3" d="M1244.35,508.11H1043.17a24,24,0,0,0,0,48.07h201.18a24.08,24.08,0,0,0,0-48.15h0Z" transform="translate(-233.12 4.47)"/><path id="Path_1577" data-name="Path 1577" class="cls-3" d="M997.18,508.11H928a24,24,0,0,0,0,48.07h69.16a24.08,24.08,0,0,0,0-48.15Z" transform="translate(-233.12 4.47)"/><path id="Path_1578" data-name="Path 1578" class="cls-3" d="M706.62,556.15H876A24.08,24.08,0,0,0,876,508H706.62a24,24,0,0,0,0,48.07Z" transform="translate(-233.12 4.47)"/><path id="Path_1579" data-name="Path 1579" class="cls-3" d="M685.81,787H526.94a24.09,24.09,0,0,0-1.19,48.15h160A24.09,24.09,0,0,0,686.93,787Z" transform="translate(-233.12 4.47)"/><path id="Path_1580" data-name="Path 1580" class="cls-3" d="M496.77,787h-122A24,24,0,0,0,373.55,835H496.77A24,24,0,0,0,497.93,787Z" transform="translate(-233.12 4.47)"/><path id="Path_1581" data-name="Path 1581" class="cls-3" d="M938.89,787H731.42a24.09,24.09,0,0,0-1.18,48.15H938.89a23.79,23.79,0,0,0,24.16-23.42c.32-13.27-10-24.36-23-24.73Z" transform="translate(-233.12 4.47)"/><path id="Path_1582" data-name="Path 1582" class="cls-3" d="M1175.66,678.47H1062.15a24,24,0,0,0,0,48.07h113.46a24,24,0,0,0,0-48.07Z" transform="translate(-233.12 4.47)"/><path id="Path_1583" data-name="Path 1583" class="cls-3" d="M1304.28,726.54h160.21a24,24,0,0,0,0-48.08H1304.28a24,24,0,0,0,0,48.08Z" transform="translate(-233.12 4.47)"/><path id="Path_1584" data-name="Path 1584" class="cls-3" d="M1274.58,678.47h-36.7a24,24,0,0,0-.29,48.07h37a24,24,0,0,0,0-48.07Z" transform="translate(-233.12 4.47)"/><path id="Path_1585" data-name="Path 1585" class="cls-3" d="M1062.2,956.82h113.46a24,24,0,0,0,1.17-48.06H1062.2a24,24,0,0,0-1.14,48.06Z" transform="translate(-233.12 4.47)"/><path id="Path_1586" data-name="Path 1586" class="cls-3" d="M1304.28,956.82h160.21a24,24,0,0,0,1.18-48.06H1304.28a23.72,23.72,0,0,0-24.09,23.45c-.27,13.27,10,24.29,22.94,24.61Z" transform="translate(-233.12 4.47)"/><path id="Path_1587" data-name="Path 1587" class="cls-3" d="M1237.88,956.82h36.73a24,24,0,0,0,1.17-48.06h-37.87a24,24,0,0,0-1.13,48.06Z" transform="translate(-233.12 4.47)"/><path id="Path_1588" data-name="Path 1588" class="cls-3" d="M1175.66,1139.06H1062.15a24,24,0,0,0-1.17,48.06h114.63a24.05,24.05,0,0,0,0-48.06Z" transform="translate(-233.12 4.47)"/><path id="Path_1589" data-name="Path 1589" class="cls-3" d="M1464.49,1139.06H1304.28a24,24,0,0,0-1.16,48.06h161.37a24,24,0,0,0,1.18-48.06Z" transform="translate(-233.12 4.47)"/><path id="Path_1590" data-name="Path 1590" class="cls-3" d="M1274.58,1139.06h-36.7a24,24,0,0,0-1.18,48.06h37.88a24.05,24.05,0,0,0,0-48.06Z" transform="translate(-233.12 4.47)"/><path id="Path_1591" data-name="Path 1591" class="cls-3" d="M1563.58-4.47H324.71c-50.55.06-91.53,41.83-91.59,93.38V1115.5c0,51.57,41,93.36,91.59,93.42H403a21.22,21.22,0,0,0,.39-42.44h-78.7c-27.58,0-49.94-22.82-50-50.93V1035H1033v36.56h-16.49c-22.59,0-40.92,18.68-40.94,41.72v53.16h-446a21.23,21.23,0,0,0,0,42.44H729.69v76.09H666.85c-42,0-76,34.72-76.05,77.5v45.84c0,19.52,15.54,35.33,34.69,35.36h635.76c19.15,0,34.63-15.84,34.68-35.36v-45.85c0-42.78-34.06-77.46-76-77.51h-62.83v-26.74H1541.8c22.58-.06,40.88-18.76,40.86-41.79v-10c41.47-9.86,70.83-47.52,70.9-90.93l1.62-1026.51C1655.14,37.36,1614.16-4.38,1563.58-4.47Zm-546.41,989V882.74h523.92V984.43Zm57.43-144.14V795.76h409.06V840.4Zm409.06,186.57v44.65H1074.61v-44.65Zm-712.36,182H975.55v7.55c0,23.07,18.33,41.72,40.93,41.74h98.93V1285H771.28Zm448.58,118.52c19,0,34.38,15.71,34.4,35.11v38.77H632.44V1362.5c0-19.36,15.42-35,34.41-35.11Zm321.21-111.62H1017.17V1114h523.92Zm70.89-100.2a50.91,50.91,0,0,1-29.36,46.14v-48.55c0-23.07-18.34-41.7-40.95-41.72h-16.44v-36.56H1612Zm0-122.92h-30c.43-2.41.69-110.49.69-110.49,0-23.07-18.35-41.72-41-41.74h-16.49V795.76h16.52c22.58-.06,40.87-18.74,40.88-41.77V650.87c0-23.07-18.34-41.7-40.94-41.73H1424.23a21.24,21.24,0,0,0,0,42.43h116.86V753.28H1017.17V651.56h277.56a21.24,21.24,0,0,0,0-42.43H1016.48c-22.59,0-40.92,18.69-40.94,41.73V754c0,23.07,18.33,41.73,40.93,41.75H1033v44.64h-16.49c-22.59,0-40.92,18.69-40.94,41.73,0,0,.25,108.09.68,110.5H274.74V284.14H1612Zm0-750.94H276.26V88.91c0-28.09,22.4-50.93,50-50.95H1562c27.58,0,49.94,22.82,50,50.95Z" transform="translate(-233.12 4.47)"/><path id="Path_1592" data-name="Path 1592" class="cls-3" d="M407,87.82c-38.21,0-69.2,31.52-69.23,70.47s30.93,70.55,69.14,70.57,69.21-31.53,69.23-70.48v-.06C476.11,119.37,445.16,87.82,407,87.82Zm0,93a22.47,22.47,0,1,1,22-22.49,22.24,22.24,0,0,1-22,22.49Z" transform="translate(-233.12 4.47)"/><path id="Path_1593" data-name="Path 1593" class="cls-3" d="M547.13,87.82c-38.21,0-69.19,31.54-69.19,70.49s31,70.53,69.19,70.53,69.18-31.57,69.18-70.52h0c0-39-31-70.52-69.18-70.52Zm0,93a22.47,22.47,0,1,1,22-22.47A22.24,22.24,0,0,1,547.13,180.79Z" transform="translate(-233.12 4.47)"/><path id="Path_1594" data-name="Path 1594" class="cls-3" d="M700.68,87.82c-38.21,0-69.14,31.56-69.14,70.51s31,70.52,69.19,70.51,69.17-31.58,69.17-70.52-31-70.5-69.19-70.5Zm0,93a22.47,22.47,0,1,1,22-22.47h0A22.26,22.26,0,0,1,700.68,180.79Z" transform="translate(-233.12 4.47)"/></g></g></g></svg>