<svg xmlns="http://www.w3.org/2000/svg" xmlns:xlink="http://www.w3.org/1999/xlink" width="1920" height="1443.667" viewBox="0 0 1920 1443.667">
  <defs>
    <clipPath id="clip-path">
      <path id="Path_1444" data-name="Path 1444" d="M0,0H1920V1443.667H0Z" transform="translate(0 794)" fill="#fbfcfd"/>
    </clipPath>
  </defs>
  <g id="Mask_Group_1" data-name="Mask Group 1" transform="translate(0 -794)" clip-path="url(#clip-path)">
    <g id="icon-1" transform="translate(237.394 794)">
      <path id="Path_1565" data-name="Path 1565" d="M563.012,2030.524a23.964,23.964,0,0,0,33.89-33.89l-58.184-58.184,58.155-58.227a23.964,23.964,0,0,0-33.89-33.89l-75.151,75.151a23.962,23.962,0,0,0,0,33.89Zm0,0" transform="translate(-374.484 -1488.049)" fill="#fff"/>
      <path id="Path_1566" data-name="Path 1566" d="M1697.287,1938.348l-58.184,58.184a23.964,23.964,0,0,0,33.89,33.89l75.151-75.151a23.947,23.947,0,0,0,0-33.876l-75.151-75.151a23.96,23.96,0,1,0-33.878,33.892Zm0,0" transform="translate(-1316.762 -1488.005)" fill="#fff"/>
      <path id="Path_1567" data-name="Path 1567" d="M1119.592,2035.756a23.962,23.962,0,0,0,31.058-13.542l59.008-150.3a23.954,23.954,0,1,0-44.585-17.53l-59.022,150.3A23.962,23.962,0,0,0,1119.592,2035.756Zm0,0" transform="translate(-860.046 -1487.977)" fill="#fff"/>
      <path id="Path_1568" data-name="Path 1568" d="M566.133,3201.594H727.549a23.962,23.962,0,0,0,0-47.923H566.133a23.962,23.962,0,1,0,0,47.923Zm0,0" transform="translate(-422.219 -2541.58)" fill="#fff"/>
      <path id="Path_1569" data-name="Path 1569" d="M1977.051,3153.671h-283.71a23.962,23.962,0,0,0,0,47.923h283.71a23.962,23.962,0,1,0,0-47.923Zm0,0" transform="translate(-1354.338 -2541.595)" fill="#fff"/>
      <path id="Path_1570" data-name="Path 1570" d="M566.133,3658.368H634.9a23.962,23.962,0,0,0,0-47.923H566.133a23.962,23.962,0,0,0,0,47.924Zm0,0" transform="translate(-422.219 -2909.502)" fill="#fff"/>
      <path id="Path_1571" data-name="Path 1571" d="M2579.777,3610.431a23.961,23.961,0,1,0,0,47.923h41.911a23.962,23.962,0,1,0,0-47.924Zm0,0" transform="translate(-2060.483 -2909.488)" fill="#fff"/>
      <path id="Path_1572" data-name="Path 1572" d="M1486.517,3634.392a23.962,23.962,0,0,0-23.962-23.962H1256.9a23.962,23.962,0,1,0,0,47.923h205.654a23.962,23.962,0,0,0,23.962-23.962Zm0,0" transform="translate(-997.992 -2909.502)" fill="#fff"/>
      <path id="Path_1573" data-name="Path 1573" d="M3088.42,3634.392a23.962,23.962,0,0,0,23.962,23.961H3190.8a23.962,23.962,0,0,0,0-47.924h-78.417a23.961,23.961,0,0,0-23.962,23.961Zm0,0" transform="translate(-2491.937 -2909.502)" fill="#fff"/>
      <path id="Path_1574" data-name="Path 1574" d="M2414.329,2205.308h82.724a23.962,23.962,0,0,0,0-47.923h-82.724a23.962,23.962,0,0,0,0,47.923Zm0,0" transform="translate(-1928.868 -1739.111)" fill="#fff"/>
      <path id="Path_1575" data-name="Path 1575" d="M3206.927,2205.308h504.726a23.962,23.962,0,0,0,0-47.923H3206.927a23.962,23.962,0,1,0,0,47.923Zm0,0" transform="translate(-2603.392 -1739.111)" fill="#fff"/>
      <path id="Path_1576" data-name="Path 1576" d="M4422.178,2633.843H4217.724a23.962,23.962,0,0,0,0,47.923h204.454a23.962,23.962,0,1,0,0-47.924Zm0,0" transform="translate(-3394.487 -2122.888)" fill="#fff"/>
      <path id="Path_1577" data-name="Path 1577" d="M3623.828,2633.843h-70.281a23.962,23.962,0,0,0,0,47.923h70.281a23.962,23.962,0,1,0,0-47.924Zm0,0" transform="translate(-2847.329 -2122.888)" fill="#fff"/>
      <path id="Path_1578" data-name="Path 1578" d="M2414.329,2681.766H2586.5a23.962,23.962,0,0,0,0-47.924H2414.329a23.962,23.962,0,0,0,0,47.923Zm0,0" transform="translate(-1933.117 -2122.873)" fill="#fff"/>
      <path id="Path_1579" data-name="Path 1579" d="M1619.679,4063.361H1458.22a23.962,23.962,0,1,0,0,47.909h161.4a23.962,23.962,0,1,0,0-47.909Zm0,0" transform="translate(-1159.624 -3274.318)" fill="#fff"/>
      <path id="Path_1580" data-name="Path 1580" d="M690.132,4063.361h-124a23.962,23.962,0,1,0,0,47.909h124a23.962,23.962,0,1,0,0-47.909Zm0,0" transform="translate(-422.219 -3274.318)" fill="#fff"/>
      <path id="Path_1581" data-name="Path 1581" d="M2768.1,4063.361H2557.261a23.962,23.962,0,1,0,0,47.909H2768.1a23.962,23.962,0,1,0,0-47.909Zm0,0" transform="translate(-2050.844 -3274.318)" fill="#fff"/>
      <path id="Path_1582" data-name="Path 1582" d="M4393.187,3507.069H4277.83a23.962,23.962,0,0,0,0,47.923h115.3a23.962,23.962,0,0,0,0-47.923Zm0,0" transform="translate(-3435.3 -2826.244)" fill="#fff"/>
      <path id="Path_1583" data-name="Path 1583" d="M5703.3,3554.992h162.817a23.962,23.962,0,0,0,0-47.923H5703.3a23.962,23.962,0,0,0,0,47.923Zm0,0" transform="translate(-4614.694 -2826.244)" fill="#fff"/>
      <path id="Path_1584" data-name="Path 1584" d="M5204.139,3507.069h-37.3a23.962,23.962,0,1,0,0,47.923h37.3a23.962,23.962,0,0,0,0-47.923Zm0,0" transform="translate(-4145.723 -2826.244)" fill="#fff"/>
      <path id="Path_1585" data-name="Path 1585" d="M4277.9,4735.153h115.3a23.962,23.962,0,1,0,0-47.909H4277.9a23.961,23.961,0,1,0,0,47.908Zm0,0" transform="translate(-3435.314 -3776.833)" fill="#fff"/>
      <path id="Path_1586" data-name="Path 1586" d="M5703.3,4735.153h162.817a23.962,23.962,0,1,0,0-47.909H5703.3a23.961,23.961,0,1,0,0,47.908Zm0,0" transform="translate(-4614.694 -3776.833)" fill="#fff"/>
      <path id="Path_1587" data-name="Path 1587" d="M5166.881,4735.153h37.33a23.962,23.962,0,1,0,0-47.909h-37.3a23.961,23.961,0,1,0,0,47.908Zm0,0" transform="translate(-4145.766 -3776.833)" fill="#fff"/>
      <path id="Path_1588" data-name="Path 1588" d="M4393.187,5867.391H4277.83a23.962,23.962,0,1,0,0,47.909h115.3a23.962,23.962,0,0,0,0-47.909Zm0,0" transform="translate(-3435.3 -4727.407)" fill="#fff"/>
      <path id="Path_1589" data-name="Path 1589" d="M5866.119,5867.391H5703.3a23.962,23.962,0,1,0,0,47.909h162.817a23.962,23.962,0,1,0,0-47.909Zm0,0" transform="translate(-4614.694 -4727.407)" fill="#fff"/>
      <path id="Path_1590" data-name="Path 1590" d="M5204.139,5867.391h-37.3a23.962,23.962,0,1,0,0,47.909h37.3a23.962,23.962,0,0,0,0-47.909Zm0,0" transform="translate(-4145.723 -4727.407)" fill="#fff"/>
      <path id="Path_1591" data-name="Path 1591" d="M1352.127,7.226H93.086A93.2,93.2,0,0,0,0,100.312V1123.74a93.2,93.2,0,0,0,93.086,93.13h79.6a21.151,21.151,0,1,0,0-42.3h-79.6A50.843,50.843,0,0,1,42.3,1123.783v-80.339H812.889v36.448H796.124a41.636,41.636,0,0,0-41.608,41.593v53.039H301.284a21.151,21.151,0,0,0,0,42.3h203.37v75.859H440.79a77.348,77.348,0,0,0-77.261,77.261v45.7a35.292,35.292,0,0,0,35.249,35.249h646.111a35.292,35.292,0,0,0,35.249-35.249v-45.712a77.348,77.348,0,0,0-77.261-77.261H938.955v-26.664h391.017a41.637,41.637,0,0,0,41.535-41.665v-9.958a93.216,93.216,0,0,0,72.044-90.644l1.662-1023.427a93.173,93.173,0,0,0-93.086-93.086ZM796.818,993.136V891.7h532.445V993.078Zm58.358-143.7V804.984h415.716v44.5Zm415.716,186v44.513H855.19v-44.513ZM546.941,1216.869H754.517v7.53a41.637,41.637,0,0,0,41.593,41.608H896.653v26.736H546.912Zm455.878,118.161a34.989,34.989,0,0,1,34.96,34.96v38.645H405.816v-38.7a35,35,0,0,1,34.974-34.945Zm326.445-111.281H796.818v-101.5h532.445Zm72.044-99.893a50.8,50.8,0,0,1-29.8,46.03v-48.4a41.651,41.651,0,0,0-41.608-41.593h-16.764v-36.448h88.158Zm0-122.54h-30.436c.434-2.4.694-110.154.694-110.154a41.651,41.651,0,0,0-41.608-41.608h-16.764v-44.57h16.765a41.651,41.651,0,0,0,41.55-41.637v-102.8a41.651,41.651,0,0,0-41.608-41.608H1210.5a21.158,21.158,0,0,0,0,42.3h118.768v101.4H796.818V661.257h282.077a21.158,21.158,0,0,0,0-42.3H796.11A41.651,41.651,0,0,0,754.5,660.563v102.8a41.651,41.651,0,0,0,41.608,41.622h16.764v44.5H796.11A41.651,41.651,0,0,0,754.5,891.089s.26,107.755.694,110.154H42.3v-706.3H1401.307Zm0-748.62H43.848V100.312a50.843,50.843,0,0,1,50.8-50.785h1255.89a50.843,50.843,0,0,1,50.785,50.785Zm0,0" transform="translate(0 -7.226)" fill="#fff"/>
      <path id="Path_1592" data-name="Path 1592" d="M551.175,422.9a70.31,70.31,0,1,0,70.266,70.29,70.31,70.31,0,0,0-70.266-70.29Zm0,92.7a22.4,22.4,0,1,1,22.4-22.4A22.4,22.4,0,0,1,551.175,515.594Zm0,0" transform="translate(-374.484 -330.925)" fill="#fff"/>
      <path id="Path_1593" data-name="Path 1593" d="M1360.278,422.9a70.31,70.31,0,1,0,70.31,70.31,70.31,70.31,0,0,0-70.31-70.31Zm0,92.7a22.4,22.4,0,1,1,22.4-22.4,22.4,22.4,0,0,1-22.4,22.4Zm0,0" transform="translate(-1041.16 -330.925)" fill="#fff"/>
      <path id="Path_1594" data-name="Path 1594" d="M2169.409,422.9a70.31,70.31,0,1,0,70.324,70.314,70.306,70.306,0,0,0-70.324-70.314Zm0,92.7a22.4,22.4,0,1,1,22.4-22.4A22.4,22.4,0,0,1,2169.409,515.594Zm0,0" transform="translate(-1694.237 -330.925)" fill="#fff"/>
    </g>
  </g>
</svg>
